<svg xmlns="http://www.w3.org/2000/svg" viewBox="0 0 2000 1160"><rect width="2000" height="1160" fill="#fffdf8"/><text x="90" y="95" font-family="Georgia,serif" font-size="58" fill="#121826">Four ways to interpret “before”</text><text x="90" y="145" font-family="Arial,sans-serif" font-size="24" fill="#667085">Compare mechanism, mathematical closure and observational leverage.</text><g font-family="Arial,sans-serif"><g transform="translate(80 220)"><rect width="430" height="815" rx="24" fill="#eef2ff" stroke="#bfc9f4" stroke-width="3"/><text x="30" y="105" font-family="Georgia,serif" font-size="38" fill="#121826">Inflation</text><path d="M65 420C120 390 145 320 190 280C245 225 295 175 360 90" fill="none" stroke="#3157d5" stroke-width="10"/><text x="30" y="520" font-size="20" fill="#253247">Accelerated expansion</text><text x="30" y="552" font-size="20" fill="#253247">→ reheating → hot phase</text><text x="30" y="640" font-size="18" fill="#667085">Observable leverage</text><text x="30" y="675" font-size="22" font-weight="700" fill="#3157d5">High</text><text x="30" y="735" font-size="18" fill="#667085">Open question</text><text x="30" y="768" font-size="20" fill="#253247">What selected the inflating state?</text></g><g transform="translate(550 220)"><rect width="430" height="815" rx="24" fill="#f9f8f3" stroke="#d6d7dc" stroke-width="3"/><text x="30" y="105" font-family="Georgia,serif" font-size="38" fill="#121826">Bounce</text><path d="M50 210C140 360 155 420 215 430C280 440 300 320 385 180" fill="none" stroke="#1a8ca4" stroke-width="10"/><line x1="215" y1="165" x2="215" y2="470" stroke="#a9b1bc" stroke-width="3" stroke-dasharray="10 9"/><text x="30" y="520" font-size="20" fill="#253247">Finite-density turnaround</text><text x="30" y="640" font-size="18" fill="#667085">Observable leverage</text><text x="30" y="675" font-size="22" font-weight="700" fill="#1a8ca4">Model-dependent</text><text x="30" y="735" font-size="18" fill="#667085">Open question</text><text x="30" y="768" font-size="20" fill="#253247">High-density completion</text></g><g transform="translate(1020 220)"><rect width="430" height="815" rx="24" fill="#f9f8f3" stroke="#d6d7dc" stroke-width="3"/><text x="30" y="105" font-family="Georgia,serif" font-size="38" fill="#121826">Cyclic</text><path d="M45 300C95 180 150 180 200 300S310 420 380 300" fill="none" stroke="#d78a20" stroke-width="9"/><path d="M45 390C95 270 150 270 200 390S310 510 380 390" fill="none" stroke="#e7b669" stroke-width="5"/><text x="30" y="520" font-size="20" fill="#253247">Repeated contraction / expansion</text><text x="30" y="640" font-size="18" fill="#667085">Observable leverage</text><text x="30" y="675" font-size="22" font-weight="700" fill="#d78a20">Model-dependent</text><text x="30" y="735" font-size="18" fill="#667085">Open question</text><text x="30" y="768" font-size="20" fill="#253247">Entropy + transition physics</text></g><g transform="translate(1490 220)"><rect width="430" height="815" rx="24" fill="#f9f8f3" stroke="#d6d7dc" stroke-width="3"/><text x="30" y="105" font-family="Georgia,serif" font-size="38" fill="#121826">Quantum boundary</text><path d="M75 405Q210 145 350 405" fill="none" stroke="#7a58c9" stroke-width="9"/><path d="M75 405Q210 665 350 405" fill="none" stroke="#b198e3" stroke-width="6" stroke-dasharray="12 9"/><text x="30" y="520" font-size="20" fill="#253247">Wave-function / boundary problem</text><text x="30" y="640" font-size="18" fill="#667085">Observable leverage</text><text x="30" y="675" font-size="22" font-weight="700" fill="#7a58c9">Indirect</text><text x="30" y="735" font-size="18" fill="#667085">Open question</text><text x="30" y="768" font-size="20" fill="#253247">Interpretation + measure</text></g></g></svg>