<svg xmlns="http://www.w3.org/2000/svg" viewBox="0 0 2000 1200"><defs><radialGradient id="bg"><stop stop-color="#eef4ff"/><stop offset=".48" stop-color="#dfe8ff"/><stop offset="1" stop-color="#f7f5ef"/></radialGradient><radialGradient id="b"><stop stop-color="#fff"/><stop offset=".15" stop-color="#f1c978"/><stop offset=".38" stop-color="#86a6ff"/><stop offset=".78" stop-color="#5367c9"/><stop offset="1" stop-color="#fff" stop-opacity=".18"/></radialGradient><filter id="s"><feDropShadow dx="0" dy="22" stdDeviation="25" flood-color="#2b3d7a" flood-opacity=".18"/></filter></defs><rect width="2000" height="1200" fill="url(#bg)"/><g fill="none" stroke="#6d82d6" stroke-opacity=".22" stroke-width="6"><path d="M-50 240C300 90 470 360 830 200S1490 170 2050 35"/><path d="M-70 450C250 260 560 560 880 380s620-20 1170-165"/><path d="M-70 700C260 510 540 800 900 610s650 0 1150-155"/><path d="M-40 930C300 790 610 1020 980 850s650 0 1110-150"/></g><g filter="url(#s)"><circle cx="520" cy="555" r="330" fill="url(#b)" stroke="#687ddd" stroke-width="7"/><circle cx="520" cy="555" r="240" fill="none" stroke="#fff" stroke-opacity=".72" stroke-width="4" stroke-dasharray="18 16"/><circle cx="1320" cy="420" r="230" fill="url(#b)" stroke="#687ddd" stroke-width="6"/><circle cx="1520" cy="860" r="270" fill="url(#b)" stroke="#687ddd" stroke-width="6"/></g><g fill="url(#b)" stroke="#6f7fd0" stroke-width="4"><circle cx="930" cy="250" r="74"/><circle cx="1010" cy="665" r="88"/><circle cx="1180" cy="915" r="64"/><circle cx="1780" cy="315" r="85"/><circle cx="320" cy="975" r="92"/><circle cx="165" cy="225" r="58"/></g><g font-family="Arial,sans-serif" fill="#142033"><text x="95" y="92" font-size="52" font-weight="700">Conceptual inflationary landscape</text><text x="95" y="140" font-size="26" fill="#506077">Causally separated reheating regions embedded in a larger inflating background</text><text x="95" y="1110" font-size="24" fill="#6c7788">Conceptual illustration only — not observational evidence.</text></g></svg>