<svg xmlns="http://www.w3.org/2000/svg" width="1100" height="700" viewBox="0 0 1100 700">
<rect width="1100" height="700" fill="white"/>
<text x="550" y="45" text-anchor="middle" font-family="Arial" font-size="28" font-weight="700">Horizon and causal-scale diagnostics</text>
<text x="550" y="75" text-anchor="middle" font-family="Arial" font-size="15">The repository computes conformal time, particle/event horizons and the comoving Hubble radius from E(a)</text>
<line x1="100" y1="585" x2="980" y2="585" stroke="#222" stroke-width="2"/>
<line x1="100" y1="105" x2="100" y2="585" stroke="#222" stroke-width="2"/>
<path d="M120,540 C260,500 380,420 500,330 C620,240 760,180 950,145" fill="none" stroke="#222" stroke-width="4"/>
<path d="M120,525 C280,450 420,390 560,350 C700,310 830,270 950,235" fill="none" stroke="#777" stroke-width="4" stroke-dasharray="10 7"/>
<text x="550" y="645" text-anchor="middle" font-family="Arial" font-size="14">scale factor a (logarithmic in the numerical notebook)</text>
<text x="35" y="350" transform="rotate(-90 35 350)" text-anchor="middle" font-family="Arial" font-size="14">comoving causal scale</text>
<line x1="650" y1="135" x2="705" y2="135" stroke="#222" stroke-width="4"/><text x="720" y="140" font-family="Arial" font-size="14">particle horizon χₚ</text>
<line x1="650" y1="170" x2="705" y2="170" stroke="#777" stroke-width="4" stroke-dasharray="10 7"/><text x="720" y="175" font-family="Arial" font-size="14">comoving Hubble radius (aH)⁻¹</text>
<text x="550" y="680" text-anchor="middle" font-family="Arial" font-size="12">Conceptual rendering of computed quantities; numerical curves are produced by code/notebooks/03_horizon_structure.ipynb.</text>
</svg>